<?xml version="1.0" encoding="UTF-8"?>
<!-- Created with Inkscape (http://www.inkscape.org/) -->
<svg width="26mm" height="26mm" version="1.1" viewBox="0 0 26 26" xmlns="http://www.w3.org/2000/svg" xmlns:cc="http://creativecommons.org/ns#" xmlns:dc="http://purl.org/dc/elements/1.1/" xmlns:rdf="http://www.w3.org/1999/02/22-rdf-syntax-ns#" xmlns:xlink="http://www.w3.org/1999/xlink">
 <metadata>
  <rdf:RDF>
   <cc:Work rdf:about="">
    <dc:format>image/svg+xml</dc:format>
    <dc:type rdf:resource="http://purl.org/dc/dcmitype/StillImage"/>
    <dc:title/>
   </cc:Work>
  </rdf:RDF>
 </metadata>
 <g transform="translate(0,-271)">
  <g transform="translate(.10023 -4.7959)" stroke-width=".26458">
   <path d="m9.5117 282.56c-0.30976 3e-3 -0.63035 0.0192-0.96094 0.0488-2.6447 0.23675-5.8501 1.4124-8.1348 5.2051a0.08562 0.08562 0 0 1-0.003906 2e-3s-0.23764 0.36561-0.30664 0.66211c-0.01725 0.0741-0.024592 0.1433-0.017578 0.19727 0.0070135 0.054 0.024589 0.0907 0.056641 0.11914 0.063426 0.0564 0.22579 0.091 0.54688 0.01 0.014906-8e-3 0.57644-0.30712 1.709-0.53711a0.08562 0.08562 0 0 1 0.10156 0.0957c-0.093631 0.68476-0.19953 2.0145 0.080078 3.5039a0.08562 0.08562 0 0 1 0 2e-3c0.00368 0.0223 0.068316 0.3888 0.29883 0.78515 0.23051 0.39636 0.62318 0.8213 1.291 0.98828l0.035156 8e-3c0.031459 3e-3 0.85617 0.0788 2.0312 0.22656 1.1797 0.14832 2.6971 0.36682 4.0625 0.64844a0.08562 0.08562 0 0 1 2e-3 0c0.01197 3e-3 0.06288 0.0164 0.16406 0.041 0.10118 0.0247 0.24624 0.0596 0.42188 0.10352 0.35128 0.0879 0.82768 0.21002 1.3438 0.34961 1.0314 0.27898 2.2116 0.62532 2.8477 0.91015 0.09178 0.039 2.3423 0.98047 3.9902 0.98047 0.68622 0 1.1802-0.16378 1.4824-0.47265a0.08562 0.08562 0 0 1 0.01172-0.01c0.10977-0.0767 0.44382-0.36526 0.80859-1.1875a0.08562 0.08562 0 0 1 0.09375-0.0488c0.93108 0.16225 1.8888 0.15233 2.8027-0.15429a0.08562 0.08562 0 0 1 0.0078-2e-3s0.85784-0.20452 1.3926-0.25781c-0.01723-0.0247-0.03032-0.0432-0.05273-0.0762-0.08339-0.12265-0.19991-0.30068-0.33594-0.52539-0.27206-0.44942-0.62002-1.0832-0.92188-1.8223a0.08562 0.08562 0 0 1 0-6e-3l-2e-3 -4e-3a0.08562 0.08562 0 0 1 0-2e-3c-2.7e-5 -7e-5 -0.0019-6e-3 -2e-3 -6e-3 -0.02315-0.0646-2.5074-6.9531-11.082-9.2539a0.08562 0.08562 0 0 1-0.0059-2e-3s-1.5875-0.54241-3.7559-0.51953z" fill="#fff" xlink:href="#path116"/>
   <path id="path116" d="m9.5117 282.56c-0.30976 3e-3 -0.63035 0.0192-0.96094 0.0488-2.6447 0.23675-5.8501 1.4124-8.1348 5.2051a0.08562 0.08562 0 0 1-0.003906 2e-3s-0.23764 0.36561-0.30664 0.66211c-0.01725 0.0741-0.024592 0.1433-0.017578 0.19727 0.0070135 0.054 0.024589 0.0907 0.056641 0.11914 0.063426 0.0564 0.22579 0.091 0.54688 0.01 0.014906-8e-3 0.57644-0.30712 1.709-0.53711a0.08562 0.08562 0 0 1 0.10156 0.0957c-0.093631 0.68476-0.19953 2.0145 0.080078 3.5039a0.08562 0.08562 0 0 1 0 2e-3c0.00368 0.0223 0.068316 0.3888 0.29883 0.78515 0.23051 0.39636 0.62318 0.8213 1.291 0.98828l0.035156 8e-3c0.031459 3e-3 0.85617 0.0788 2.0312 0.22656 1.1797 0.14832 2.6971 0.36682 4.0625 0.64844a0.08562 0.08562 0 0 1 2e-3 0c0.01197 3e-3 0.06288 0.0164 0.16406 0.041 0.10118 0.0247 0.24624 0.0596 0.42188 0.10352 0.35128 0.0879 0.82768 0.21002 1.3438 0.34961 1.0314 0.27898 2.2116 0.62532 2.8477 0.91015 0.09178 0.039 2.3423 0.98047 3.9902 0.98047 0.68622 0 1.1802-0.16378 1.4824-0.47265a0.08562 0.08562 0 0 1 0.01172-0.01c0.10977-0.0767 0.44382-0.36526 0.80859-1.1875a0.08562 0.08562 0 0 1 0.09375-0.0488c0.93108 0.16225 1.8888 0.15233 2.8027-0.15429a0.08562 0.08562 0 0 1 0.0078-2e-3s0.85784-0.20452 1.3926-0.25781c-0.01723-0.0247-0.03032-0.0432-0.05273-0.0762-0.08339-0.12265-0.19991-0.30068-0.33594-0.52539-0.27206-0.44942-0.62002-1.0832-0.92188-1.8223a0.08562 0.08562 0 0 1 0-6e-3l-2e-3 -4e-3a0.08562 0.08562 0 0 1 0-2e-3c-2.7e-5 -7e-5 -0.0019-6e-3 -2e-3 -6e-3 -0.02315-0.0646-2.5074-6.9531-11.082-9.2539a0.08562 0.08562 0 0 1-0.0059-2e-3s-1.5875-0.54241-3.7559-0.51953z" fill="#fff" stroke-width=".26458"/>
   <path d="m24.44 292.32s-2.4916-6.9977-11.144-9.3194c0 0-8.3563-2.8625-12.954 4.7702 0 0-0.97922 1.4645 0.37915 1.1142 0 0 0.55906-0.30083 1.6978-0.53208-0.09446 0.69083-0.20161 2.0278 0.08043 3.5301 0.01005 0.0609 0.26485 1.4981 1.6521 1.8449l0.03969 7e-3c0.03334 3e-3 3.3692 0.31433 6.0926 0.87604 0.03519 8e-3 3.5179 0.83873 4.7641 1.3973 0.09472 0.0402 2.3434 0.98875 4.0235 0.98875 0.69982 0 1.2184-0.16774 1.5425-0.499 0.12541-0.0876 0.46778-0.38894 0.83741-1.2221 0.94139 0.16404 1.9151 0.15584 2.8456-0.15637 0 0 1.0395-0.254 1.5237-0.27808 0 5.3e-4 -0.78079-1.0536-1.3801-2.521zm-1.8918-2.4649 0.8599 1.1906s-3.3475-2.9996-8.6963-0.71093c0 0 3.2062-2.8279 7.8364-0.47969zm-1.5875-2.0505s-3.8878-2.0783-8.5913 0.98742c0 0 2.4728-3.1702 7.5991-1.8473zm-4.2333-3.0758 1.1245 0.66145s-4.6302-1.5875-8.2775 2.5292c0 0 1.9936-4.0836 7.153-3.1906zm-3.8034-1.4552 1.4221 0.39687s-4.685-0.52996-7.5872 3.7817c0 0 0.93954-3.8148 6.1651-4.1786zm-3.8034-0.52917 1.5214 0.13229s-3.6049 0.0661-6.4741 4.5421c0 0 1.3809-4.1122 4.9527-4.6744zm-4.5641 1.2568s1.2348-0.55642 1.356-0.56224c0 0-2.4884 1.2118-3.8656 4.4495 0 0 0.35983-2.4982 2.5096-3.8873zm15.752 12.064-0.06006 0.0482c-0.21828 0.23521-0.61436 0.35427-1.1779 0.35427-1.5714 0-3.7941-0.93715-3.8116-0.94456-1.2867-0.57705-4.7085-1.3928-4.8612-1.4288-2.6458-0.54583-5.8465-0.85645-6.1375-0.88423-1.0303-0.27014-1.2316-1.3676-1.2406-1.4187-0.2921-1.5581-0.13996-2.9567-0.05107-3.5354 0.86042-0.13256 1.9682-0.21246 3.3385-0.13361 0 0 4.4172 0.14472 9.6089 4.4593 0 0 2.2982 1.9235 4.9982 2.5818-0.33179 0.70749-0.60272 0.89958-0.60563 0.9017zm-3.7269-3.9217s3.3536-1.561 7.4546 0.68792l0.62839 1.0583s-3.9135-2.5196-8.083-1.7462z"/>
  </g>
 </g>
</svg>
